<?xml version="1.0" encoding="UTF-8" standalone="no"?>
<!DOCTYPE svg PUBLIC "-//W3C//DTD SVG 1.1//EN"
 "http://www.w3.org/Graphics/SVG/1.1/DTD/svg11.dtd">
<!-- Generated by graphviz version 2.43.0 (0)
 -->
<!-- Title: fx_graph Pages: 1 -->
<svg width="1520pt" height="2182pt"
 viewBox="0.00 0.00 1520.00 2182.00" xmlns="http://www.w3.org/2000/svg" xmlns:xlink="http://www.w3.org/1999/xlink">
<g id="graph0" class="graph" transform="scale(1 1) rotate(0) translate(4 2178)">
<title>fx_graph</title>
<polygon fill="white" stroke="transparent" points="-4,4 -4,-2178 1516,-2178 1516,4 -4,4"/>
<!-- arg3_1 -->
<g id="node1" class="node">
<title>arg3_1</title>
<path fill="AliceBlue" stroke="black" d="M12,-2081.5C12,-2081.5 157,-2081.5 157,-2081.5 163,-2081.5 169,-2087.5 169,-2093.5 169,-2093.5 169,-2161.5 169,-2161.5 169,-2167.5 163,-2173.5 157,-2173.5 157,-2173.5 12,-2173.5 12,-2173.5 6,-2173.5 0,-2167.5 0,-2161.5 0,-2161.5 0,-2093.5 0,-2093.5 0,-2087.5 6,-2081.5 12,-2081.5"/>
<text text-anchor="middle" x="84.5" y="-2158.3" font-family="Times,serif" font-size="14.00" fill="#000000">name=%arg3_1</text>
<polyline fill="none" stroke="black" points="0,-2150.5 169,-2150.5 "/>
<text text-anchor="middle" x="84.5" y="-2135.3" font-family="Times,serif" font-size="14.00" fill="#000000">op_code=placeholder</text>
<polyline fill="none" stroke="black" points="0,-2127.5 169,-2127.5 "/>
<text text-anchor="middle" x="84.5" y="-2112.3" font-family="Times,serif" font-size="14.00" fill="#000000">target=arg3_1</text>
<polyline fill="none" stroke="black" points="0,-2104.5 169,-2104.5 "/>
<text text-anchor="middle" x="84.5" y="-2089.3" font-family="Times,serif" font-size="14.00" fill="#000000">num_users=1</text>
</g>
<!-- op0 -->
<g id="node10" class="node">
<title>op0</title>
<path fill="#fff0f5" stroke="black" d="M75,-1837.5C75,-1837.5 468,-1837.5 468,-1837.5 474,-1837.5 480,-1843.5 480,-1849.5 480,-1849.5 480,-2032.5 480,-2032.5 480,-2038.5 474,-2044.5 468,-2044.5 468,-2044.5 75,-2044.5 75,-2044.5 69,-2044.5 63,-2038.5 63,-2032.5 63,-2032.5 63,-1849.5 63,-1849.5 63,-1843.5 69,-1837.5 75,-1837.5"/>
<text text-anchor="middle" x="271.5" y="-2029.3" font-family="Times,serif" font-size="14.00" fill="#000000">name=%op0</text>
<polyline fill="none" stroke="black" points="63,-2021.5 480,-2021.5 "/>
<text text-anchor="middle" x="271.5" y="-2006.3" font-family="Times,serif" font-size="14.00" fill="#000000">op_code=call_function</text>
<polyline fill="none" stroke="black" points="63,-1998.5 480,-1998.5 "/>
<text text-anchor="middle" x="271.5" y="-1983.3" font-family="Times,serif" font-size="14.00" fill="#000000">target=torch._inductor.debug.extern: fused_convolution</text>
<polyline fill="none" stroke="black" points="63,-1975.5 480,-1975.5 "/>
<text text-anchor="middle" x="271.5" y="-1960.3" font-family="Times,serif" font-size="14.00" fill="#000000">kwargs={device: cpu,}</text>
<polyline fill="none" stroke="black" points="63,-1952.5 480,-1952.5 "/>
<text text-anchor="middle" x="271.5" y="-1937.3" font-family="Times,serif" font-size="14.00" fill="#000000">num_users=1</text>
<polyline fill="none" stroke="black" points="63,-1929.5 480,-1929.5 "/>
<text text-anchor="middle" x="271.5" y="-1914.3" font-family="Times,serif" font-size="14.00" fill="#000000">dtype=None</text>
<polyline fill="none" stroke="black" points="63,-1906.5 480,-1906.5 "/>
<text text-anchor="middle" x="271.5" y="-1891.3" font-family="Times,serif" font-size="14.00" fill="#000000">shape=(&#39;e&#39;, &#39;x&#39;, &#39;t&#39;, &#39;e&#39;, &#39;r&#39;, &#39;n&#39;)</text>
<polyline fill="none" stroke="black" points="63,-1883.5 480,-1883.5 "/>
<text text-anchor="middle" x="271.5" y="-1868.3" font-family="Times,serif" font-size="14.00" fill="#000000">requires_grad=None</text>
<polyline fill="none" stroke="black" points="63,-1860.5 480,-1860.5 "/>
<text text-anchor="middle" x="271.5" y="-1845.3" font-family="Times,serif" font-size="14.00" fill="#000000">stride=None</text>
</g>
<!-- arg3_1&#45;&gt;op0 -->
<g id="edge1" class="edge">
<title>arg3_1&#45;&gt;op0</title>
<path fill="none" stroke="black" d="M130.25,-2081.37C139.56,-2072.18 149.73,-2062.14 160.22,-2051.79"/>
<polygon fill="black" stroke="black" points="162.86,-2054.1 167.52,-2044.59 157.95,-2049.12 162.86,-2054.1"/>
</g>
<!-- arg0_1 -->
<g id="node2" class="node">
<title>arg0_1</title>
<path fill="AliceBlue" stroke="black" d="M199,-2081.5C199,-2081.5 344,-2081.5 344,-2081.5 350,-2081.5 356,-2087.5 356,-2093.5 356,-2093.5 356,-2161.5 356,-2161.5 356,-2167.5 350,-2173.5 344,-2173.5 344,-2173.5 199,-2173.5 199,-2173.5 193,-2173.5 187,-2167.5 187,-2161.5 187,-2161.5 187,-2093.5 187,-2093.5 187,-2087.5 193,-2081.5 199,-2081.5"/>
<text text-anchor="middle" x="271.5" y="-2158.3" font-family="Times,serif" font-size="14.00" fill="#000000">name=%arg0_1</text>
<polyline fill="none" stroke="black" points="187,-2150.5 356,-2150.5 "/>
<text text-anchor="middle" x="271.5" y="-2135.3" font-family="Times,serif" font-size="14.00" fill="#000000">op_code=placeholder</text>
<polyline fill="none" stroke="black" points="187,-2127.5 356,-2127.5 "/>
<text text-anchor="middle" x="271.5" y="-2112.3" font-family="Times,serif" font-size="14.00" fill="#000000">target=arg0_1</text>
<polyline fill="none" stroke="black" points="187,-2104.5 356,-2104.5 "/>
<text text-anchor="middle" x="271.5" y="-2089.3" font-family="Times,serif" font-size="14.00" fill="#000000">num_users=1</text>
</g>
<!-- arg0_1&#45;&gt;op0 -->
<g id="edge2" class="edge">
<title>arg0_1&#45;&gt;op0</title>
<path fill="none" stroke="black" d="M271.5,-2081.37C271.5,-2073.06 271.5,-2064.06 271.5,-2054.77"/>
<polygon fill="black" stroke="black" points="275,-2054.59 271.5,-2044.59 268,-2054.59 275,-2054.59"/>
</g>
<!-- arg1_1 -->
<g id="node3" class="node">
<title>arg1_1</title>
<path fill="AliceBlue" stroke="black" d="M386,-2081.5C386,-2081.5 531,-2081.5 531,-2081.5 537,-2081.5 543,-2087.5 543,-2093.5 543,-2093.5 543,-2161.5 543,-2161.5 543,-2167.5 537,-2173.5 531,-2173.5 531,-2173.5 386,-2173.5 386,-2173.5 380,-2173.5 374,-2167.5 374,-2161.5 374,-2161.5 374,-2093.5 374,-2093.5 374,-2087.5 380,-2081.5 386,-2081.5"/>
<text text-anchor="middle" x="458.5" y="-2158.3" font-family="Times,serif" font-size="14.00" fill="#000000">name=%arg1_1</text>
<polyline fill="none" stroke="black" points="374,-2150.5 543,-2150.5 "/>
<text text-anchor="middle" x="458.5" y="-2135.3" font-family="Times,serif" font-size="14.00" fill="#000000">op_code=placeholder</text>
<polyline fill="none" stroke="black" points="374,-2127.5 543,-2127.5 "/>
<text text-anchor="middle" x="458.5" y="-2112.3" font-family="Times,serif" font-size="14.00" fill="#000000">target=arg1_1</text>
<polyline fill="none" stroke="black" points="374,-2104.5 543,-2104.5 "/>
<text text-anchor="middle" x="458.5" y="-2089.3" font-family="Times,serif" font-size="14.00" fill="#000000">num_users=1</text>
</g>
<!-- arg1_1&#45;&gt;op0 -->
<g id="edge3" class="edge">
<title>arg1_1&#45;&gt;op0</title>
<path fill="none" stroke="black" d="M412.75,-2081.37C403.44,-2072.18 393.27,-2062.14 382.78,-2051.79"/>
<polygon fill="black" stroke="black" points="385.05,-2049.12 375.48,-2044.59 380.14,-2054.1 385.05,-2049.12"/>
</g>
<!-- arg4_1 -->
<g id="node4" class="node">
<title>arg4_1</title>
<path fill="AliceBlue" stroke="black" d="M827,-1895C827,-1895 972,-1895 972,-1895 978,-1895 984,-1901 984,-1907 984,-1907 984,-1975 984,-1975 984,-1981 978,-1987 972,-1987 972,-1987 827,-1987 827,-1987 821,-1987 815,-1981 815,-1975 815,-1975 815,-1907 815,-1907 815,-1901 821,-1895 827,-1895"/>
<text text-anchor="middle" x="899.5" y="-1971.8" font-family="Times,serif" font-size="14.00" fill="#000000">name=%arg4_1</text>
<polyline fill="none" stroke="black" points="815,-1964 984,-1964 "/>
<text text-anchor="middle" x="899.5" y="-1948.8" font-family="Times,serif" font-size="14.00" fill="#000000">op_code=placeholder</text>
<polyline fill="none" stroke="black" points="815,-1941 984,-1941 "/>
<text text-anchor="middle" x="899.5" y="-1925.8" font-family="Times,serif" font-size="14.00" fill="#000000">target=arg4_1</text>
<polyline fill="none" stroke="black" points="815,-1918 984,-1918 "/>
<text text-anchor="middle" x="899.5" y="-1902.8" font-family="Times,serif" font-size="14.00" fill="#000000">num_users=1</text>
</g>
<!-- op2 -->
<g id="node11" class="node">
<title>op2</title>
<path fill="#caff70" stroke="black" d="M678,-1593.5C678,-1593.5 1121,-1593.5 1121,-1593.5 1127,-1593.5 1133,-1599.5 1133,-1605.5 1133,-1605.5 1133,-1788.5 1133,-1788.5 1133,-1794.5 1127,-1800.5 1121,-1800.5 1121,-1800.5 678,-1800.5 678,-1800.5 672,-1800.5 666,-1794.5 666,-1788.5 666,-1788.5 666,-1605.5 666,-1605.5 666,-1599.5 672,-1593.5 678,-1593.5"/>
<text text-anchor="middle" x="899.5" y="-1785.3" font-family="Times,serif" font-size="14.00" fill="#000000">name=%op2</text>
<polyline fill="none" stroke="black" points="666,-1777.5 1133,-1777.5 "/>
<text text-anchor="middle" x="899.5" y="-1762.3" font-family="Times,serif" font-size="14.00" fill="#000000">op_code=call_function</text>
<polyline fill="none" stroke="black" points="666,-1754.5 1133,-1754.5 "/>
<text text-anchor="middle" x="899.5" y="-1739.3" font-family="Times,serif" font-size="14.00" fill="#000000">target=torch._inductor.debug.compute: fused_convolution_relu</text>
<polyline fill="none" stroke="black" points="666,-1731.5 1133,-1731.5 "/>
<text text-anchor="middle" x="899.5" y="-1716.3" font-family="Times,serif" font-size="14.00" fill="#000000">kwargs={device: cpu,}</text>
<polyline fill="none" stroke="black" points="666,-1708.5 1133,-1708.5 "/>
<text text-anchor="middle" x="899.5" y="-1693.3" font-family="Times,serif" font-size="14.00" fill="#000000">num_users=1</text>
<polyline fill="none" stroke="black" points="666,-1685.5 1133,-1685.5 "/>
<text text-anchor="middle" x="899.5" y="-1670.3" font-family="Times,serif" font-size="14.00" fill="#000000">dtype=None</text>
<polyline fill="none" stroke="black" points="666,-1662.5 1133,-1662.5 "/>
<text text-anchor="middle" x="899.5" y="-1647.3" font-family="Times,serif" font-size="14.00" fill="#000000">shape=((64, 32, 9), ())</text>
<polyline fill="none" stroke="black" points="666,-1639.5 1133,-1639.5 "/>
<text text-anchor="middle" x="899.5" y="-1624.3" font-family="Times,serif" font-size="14.00" fill="#000000">requires_grad=None</text>
<polyline fill="none" stroke="black" points="666,-1616.5 1133,-1616.5 "/>
<text text-anchor="middle" x="899.5" y="-1601.3" font-family="Times,serif" font-size="14.00" fill="#000000">stride=None</text>
</g>
<!-- arg4_1&#45;&gt;op2 -->
<g id="edge4" class="edge">
<title>arg4_1&#45;&gt;op2</title>
<path fill="none" stroke="black" d="M899.5,-1894.77C899.5,-1870.92 899.5,-1840.51 899.5,-1810.76"/>
<polygon fill="black" stroke="black" points="903,-1810.71 899.5,-1800.71 896,-1810.71 903,-1810.71"/>
</g>
<!-- arg5_1 -->
<g id="node5" class="node">
<title>arg5_1</title>
<path fill="AliceBlue" stroke="black" d="M491,-1651C491,-1651 636,-1651 636,-1651 642,-1651 648,-1657 648,-1663 648,-1663 648,-1731 648,-1731 648,-1737 642,-1743 636,-1743 636,-1743 491,-1743 491,-1743 485,-1743 479,-1737 479,-1731 479,-1731 479,-1663 479,-1663 479,-1657 485,-1651 491,-1651"/>
<text text-anchor="middle" x="563.5" y="-1727.8" font-family="Times,serif" font-size="14.00" fill="#000000">name=%arg5_1</text>
<polyline fill="none" stroke="black" points="479,-1720 648,-1720 "/>
<text text-anchor="middle" x="563.5" y="-1704.8" font-family="Times,serif" font-size="14.00" fill="#000000">op_code=placeholder</text>
<polyline fill="none" stroke="black" points="479,-1697 648,-1697 "/>
<text text-anchor="middle" x="563.5" y="-1681.8" font-family="Times,serif" font-size="14.00" fill="#000000">target=arg5_1</text>
<polyline fill="none" stroke="black" points="479,-1674 648,-1674 "/>
<text text-anchor="middle" x="563.5" y="-1658.8" font-family="Times,serif" font-size="14.00" fill="#000000">num_users=1</text>
</g>
<!-- op3 -->
<g id="node13" class="node">
<title>op3</title>
<path fill="#eed5d2" stroke="black" d="M349.5,-1349.5C349.5,-1349.5 777.5,-1349.5 777.5,-1349.5 783.5,-1349.5 789.5,-1355.5 789.5,-1361.5 789.5,-1361.5 789.5,-1544.5 789.5,-1544.5 789.5,-1550.5 783.5,-1556.5 777.5,-1556.5 777.5,-1556.5 349.5,-1556.5 349.5,-1556.5 343.5,-1556.5 337.5,-1550.5 337.5,-1544.5 337.5,-1544.5 337.5,-1361.5 337.5,-1361.5 337.5,-1355.5 343.5,-1349.5 349.5,-1349.5"/>
<text text-anchor="middle" x="563.5" y="-1541.3" font-family="Times,serif" font-size="14.00" fill="#000000">name=%op3</text>
<polyline fill="none" stroke="black" points="337.5,-1533.5 789.5,-1533.5 "/>
<text text-anchor="middle" x="563.5" y="-1518.3" font-family="Times,serif" font-size="14.00" fill="#000000">op_code=call_function</text>
<polyline fill="none" stroke="black" points="337.5,-1510.5 789.5,-1510.5 "/>
<text text-anchor="middle" x="563.5" y="-1495.3" font-family="Times,serif" font-size="14.00" fill="#000000">target=torch._inductor.debug.extern: fused_convolution_relu</text>
<polyline fill="none" stroke="black" points="337.5,-1487.5 789.5,-1487.5 "/>
<text text-anchor="middle" x="563.5" y="-1472.3" font-family="Times,serif" font-size="14.00" fill="#000000">kwargs={device: cpu,}</text>
<polyline fill="none" stroke="black" points="337.5,-1464.5 789.5,-1464.5 "/>
<text text-anchor="middle" x="563.5" y="-1449.3" font-family="Times,serif" font-size="14.00" fill="#000000">num_users=1</text>
<polyline fill="none" stroke="black" points="337.5,-1441.5 789.5,-1441.5 "/>
<text text-anchor="middle" x="563.5" y="-1426.3" font-family="Times,serif" font-size="14.00" fill="#000000">dtype=None</text>
<polyline fill="none" stroke="black" points="337.5,-1418.5 789.5,-1418.5 "/>
<text text-anchor="middle" x="563.5" y="-1403.3" font-family="Times,serif" font-size="14.00" fill="#000000">shape=(&#39;e&#39;, &#39;x&#39;, &#39;t&#39;, &#39;e&#39;, &#39;r&#39;, &#39;n&#39;)</text>
<polyline fill="none" stroke="black" points="337.5,-1395.5 789.5,-1395.5 "/>
<text text-anchor="middle" x="563.5" y="-1380.3" font-family="Times,serif" font-size="14.00" fill="#000000">requires_grad=None</text>
<polyline fill="none" stroke="black" points="337.5,-1372.5 789.5,-1372.5 "/>
<text text-anchor="middle" x="563.5" y="-1357.3" font-family="Times,serif" font-size="14.00" fill="#000000">stride=None</text>
</g>
<!-- arg5_1&#45;&gt;op3 -->
<g id="edge5" class="edge">
<title>arg5_1&#45;&gt;op3</title>
<path fill="none" stroke="black" d="M563.5,-1650.77C563.5,-1626.92 563.5,-1596.51 563.5,-1566.76"/>
<polygon fill="black" stroke="black" points="567,-1566.71 563.5,-1556.71 560,-1566.71 567,-1566.71"/>
</g>
<!-- arg7_1 -->
<g id="node6" class="node">
<title>arg7_1</title>
<path fill="AliceBlue" stroke="black" d="M876,-1163C876,-1163 1021,-1163 1021,-1163 1027,-1163 1033,-1169 1033,-1175 1033,-1175 1033,-1243 1033,-1243 1033,-1249 1027,-1255 1021,-1255 1021,-1255 876,-1255 876,-1255 870,-1255 864,-1249 864,-1243 864,-1243 864,-1175 864,-1175 864,-1169 870,-1163 876,-1163"/>
<text text-anchor="middle" x="948.5" y="-1239.8" font-family="Times,serif" font-size="14.00" fill="#000000">name=%arg7_1</text>
<polyline fill="none" stroke="black" points="864,-1232 1033,-1232 "/>
<text text-anchor="middle" x="948.5" y="-1216.8" font-family="Times,serif" font-size="14.00" fill="#000000">op_code=placeholder</text>
<polyline fill="none" stroke="black" points="864,-1209 1033,-1209 "/>
<text text-anchor="middle" x="948.5" y="-1193.8" font-family="Times,serif" font-size="14.00" fill="#000000">target=arg7_1</text>
<polyline fill="none" stroke="black" points="864,-1186 1033,-1186 "/>
<text text-anchor="middle" x="948.5" y="-1170.8" font-family="Times,serif" font-size="14.00" fill="#000000">num_users=1</text>
</g>
<!-- op5 -->
<g id="node15" class="node">
<title>op5</title>
<path fill="#fff68f" stroke="black" d="M766.5,-861.5C766.5,-861.5 1130.5,-861.5 1130.5,-861.5 1136.5,-861.5 1142.5,-867.5 1142.5,-873.5 1142.5,-873.5 1142.5,-1056.5 1142.5,-1056.5 1142.5,-1062.5 1136.5,-1068.5 1130.5,-1068.5 1130.5,-1068.5 766.5,-1068.5 766.5,-1068.5 760.5,-1068.5 754.5,-1062.5 754.5,-1056.5 754.5,-1056.5 754.5,-873.5 754.5,-873.5 754.5,-867.5 760.5,-861.5 766.5,-861.5"/>
<text text-anchor="middle" x="948.5" y="-1053.3" font-family="Times,serif" font-size="14.00" fill="#000000">name=%op5</text>
<polyline fill="none" stroke="black" points="754.5,-1045.5 1142.5,-1045.5 "/>
<text text-anchor="middle" x="948.5" y="-1030.3" font-family="Times,serif" font-size="14.00" fill="#000000">op_code=call_function</text>
<polyline fill="none" stroke="black" points="754.5,-1022.5 1142.5,-1022.5 "/>
<text text-anchor="middle" x="948.5" y="-1007.3" font-family="Times,serif" font-size="14.00" fill="#000000">target=torch._inductor.debug.extern: fused_addmm</text>
<polyline fill="none" stroke="black" points="754.5,-999.5 1142.5,-999.5 "/>
<text text-anchor="middle" x="948.5" y="-984.3" font-family="Times,serif" font-size="14.00" fill="#000000">kwargs={device: cpu,}</text>
<polyline fill="none" stroke="black" points="754.5,-976.5 1142.5,-976.5 "/>
<text text-anchor="middle" x="948.5" y="-961.3" font-family="Times,serif" font-size="14.00" fill="#000000">num_users=1</text>
<polyline fill="none" stroke="black" points="754.5,-953.5 1142.5,-953.5 "/>
<text text-anchor="middle" x="948.5" y="-938.3" font-family="Times,serif" font-size="14.00" fill="#000000">dtype=None</text>
<polyline fill="none" stroke="black" points="754.5,-930.5 1142.5,-930.5 "/>
<text text-anchor="middle" x="948.5" y="-915.3" font-family="Times,serif" font-size="14.00" fill="#000000">shape=(&#39;e&#39;, &#39;x&#39;, &#39;t&#39;, &#39;e&#39;, &#39;r&#39;, &#39;n&#39;)</text>
<polyline fill="none" stroke="black" points="754.5,-907.5 1142.5,-907.5 "/>
<text text-anchor="middle" x="948.5" y="-892.3" font-family="Times,serif" font-size="14.00" fill="#000000">requires_grad=None</text>
<polyline fill="none" stroke="black" points="754.5,-884.5 1142.5,-884.5 "/>
<text text-anchor="middle" x="948.5" y="-869.3" font-family="Times,serif" font-size="14.00" fill="#000000">stride=None</text>
</g>
<!-- arg7_1&#45;&gt;op5 -->
<g id="edge6" class="edge">
<title>arg7_1&#45;&gt;op5</title>
<path fill="none" stroke="black" d="M948.5,-1162.77C948.5,-1138.92 948.5,-1108.51 948.5,-1078.76"/>
<polygon fill="black" stroke="black" points="952,-1078.71 948.5,-1068.71 945,-1078.71 952,-1078.71"/>
</g>
<!-- arg6_1 -->
<g id="node7" class="node">
<title>arg6_1</title>
<path fill="AliceBlue" stroke="black" d="M1063,-1163C1063,-1163 1208,-1163 1208,-1163 1214,-1163 1220,-1169 1220,-1175 1220,-1175 1220,-1243 1220,-1243 1220,-1249 1214,-1255 1208,-1255 1208,-1255 1063,-1255 1063,-1255 1057,-1255 1051,-1249 1051,-1243 1051,-1243 1051,-1175 1051,-1175 1051,-1169 1057,-1163 1063,-1163"/>
<text text-anchor="middle" x="1135.5" y="-1239.8" font-family="Times,serif" font-size="14.00" fill="#000000">name=%arg6_1</text>
<polyline fill="none" stroke="black" points="1051,-1232 1220,-1232 "/>
<text text-anchor="middle" x="1135.5" y="-1216.8" font-family="Times,serif" font-size="14.00" fill="#000000">op_code=placeholder</text>
<polyline fill="none" stroke="black" points="1051,-1209 1220,-1209 "/>
<text text-anchor="middle" x="1135.5" y="-1193.8" font-family="Times,serif" font-size="14.00" fill="#000000">target=arg6_1</text>
<polyline fill="none" stroke="black" points="1051,-1186 1220,-1186 "/>
<text text-anchor="middle" x="1135.5" y="-1170.8" font-family="Times,serif" font-size="14.00" fill="#000000">num_users=1</text>
</g>
<!-- arg6_1&#45;&gt;op5 -->
<g id="edge7" class="edge">
<title>arg6_1&#45;&gt;op5</title>
<path fill="none" stroke="black" d="M1100.55,-1162.77C1081.72,-1138.4 1057.6,-1107.18 1034.14,-1076.82"/>
<polygon fill="black" stroke="black" points="1036.75,-1074.48 1027.87,-1068.71 1031.21,-1078.76 1036.75,-1074.48"/>
</g>
<!-- arg9_1 -->
<g id="node8" class="node">
<title>arg9_1</title>
<path fill="AliceBlue" stroke="black" d="M1168,-675C1168,-675 1313,-675 1313,-675 1319,-675 1325,-681 1325,-687 1325,-687 1325,-755 1325,-755 1325,-761 1319,-767 1313,-767 1313,-767 1168,-767 1168,-767 1162,-767 1156,-761 1156,-755 1156,-755 1156,-687 1156,-687 1156,-681 1162,-675 1168,-675"/>
<text text-anchor="middle" x="1240.5" y="-751.8" font-family="Times,serif" font-size="14.00" fill="#000000">name=%arg9_1</text>
<polyline fill="none" stroke="black" points="1156,-744 1325,-744 "/>
<text text-anchor="middle" x="1240.5" y="-728.8" font-family="Times,serif" font-size="14.00" fill="#000000">op_code=placeholder</text>
<polyline fill="none" stroke="black" points="1156,-721 1325,-721 "/>
<text text-anchor="middle" x="1240.5" y="-705.8" font-family="Times,serif" font-size="14.00" fill="#000000">target=arg9_1</text>
<polyline fill="none" stroke="black" points="1156,-698 1325,-698 "/>
<text text-anchor="middle" x="1240.5" y="-682.8" font-family="Times,serif" font-size="14.00" fill="#000000">num_users=1</text>
</g>
<!-- op7 -->
<g id="node17" class="node">
<title>op7</title>
<path fill="#98f5ff" stroke="black" d="M1041,-373.5C1041,-373.5 1440,-373.5 1440,-373.5 1446,-373.5 1452,-379.5 1452,-385.5 1452,-385.5 1452,-568.5 1452,-568.5 1452,-574.5 1446,-580.5 1440,-580.5 1440,-580.5 1041,-580.5 1041,-580.5 1035,-580.5 1029,-574.5 1029,-568.5 1029,-568.5 1029,-385.5 1029,-385.5 1029,-379.5 1035,-373.5 1041,-373.5"/>
<text text-anchor="middle" x="1240.5" y="-565.3" font-family="Times,serif" font-size="14.00" fill="#000000">name=%op7</text>
<polyline fill="none" stroke="black" points="1029,-557.5 1452,-557.5 "/>
<text text-anchor="middle" x="1240.5" y="-542.3" font-family="Times,serif" font-size="14.00" fill="#000000">op_code=call_function</text>
<polyline fill="none" stroke="black" points="1029,-534.5 1452,-534.5 "/>
<text text-anchor="middle" x="1240.5" y="-519.3" font-family="Times,serif" font-size="14.00" fill="#000000">target=torch._inductor.debug.extern: fused_addmm_relu</text>
<polyline fill="none" stroke="black" points="1029,-511.5 1452,-511.5 "/>
<text text-anchor="middle" x="1240.5" y="-496.3" font-family="Times,serif" font-size="14.00" fill="#000000">kwargs={device: cpu,}</text>
<polyline fill="none" stroke="black" points="1029,-488.5 1452,-488.5 "/>
<text text-anchor="middle" x="1240.5" y="-473.3" font-family="Times,serif" font-size="14.00" fill="#000000">num_users=1</text>
<polyline fill="none" stroke="black" points="1029,-465.5 1452,-465.5 "/>
<text text-anchor="middle" x="1240.5" y="-450.3" font-family="Times,serif" font-size="14.00" fill="#000000">dtype=None</text>
<polyline fill="none" stroke="black" points="1029,-442.5 1452,-442.5 "/>
<text text-anchor="middle" x="1240.5" y="-427.3" font-family="Times,serif" font-size="14.00" fill="#000000">shape=(&#39;e&#39;, &#39;x&#39;, &#39;t&#39;, &#39;e&#39;, &#39;r&#39;, &#39;n&#39;)</text>
<polyline fill="none" stroke="black" points="1029,-419.5 1452,-419.5 "/>
<text text-anchor="middle" x="1240.5" y="-404.3" font-family="Times,serif" font-size="14.00" fill="#000000">requires_grad=None</text>
<polyline fill="none" stroke="black" points="1029,-396.5 1452,-396.5 "/>
<text text-anchor="middle" x="1240.5" y="-381.3" font-family="Times,serif" font-size="14.00" fill="#000000">stride=None</text>
</g>
<!-- arg9_1&#45;&gt;op7 -->
<g id="edge8" class="edge">
<title>arg9_1&#45;&gt;op7</title>
<path fill="none" stroke="black" d="M1240.5,-674.77C1240.5,-650.92 1240.5,-620.51 1240.5,-590.76"/>
<polygon fill="black" stroke="black" points="1244,-590.71 1240.5,-580.71 1237,-590.71 1244,-590.71"/>
</g>
<!-- arg8_1 -->
<g id="node9" class="node">
<title>arg8_1</title>
<path fill="AliceBlue" stroke="black" d="M1355,-675C1355,-675 1500,-675 1500,-675 1506,-675 1512,-681 1512,-687 1512,-687 1512,-755 1512,-755 1512,-761 1506,-767 1500,-767 1500,-767 1355,-767 1355,-767 1349,-767 1343,-761 1343,-755 1343,-755 1343,-687 1343,-687 1343,-681 1349,-675 1355,-675"/>
<text text-anchor="middle" x="1427.5" y="-751.8" font-family="Times,serif" font-size="14.00" fill="#000000">name=%arg8_1</text>
<polyline fill="none" stroke="black" points="1343,-744 1512,-744 "/>
<text text-anchor="middle" x="1427.5" y="-728.8" font-family="Times,serif" font-size="14.00" fill="#000000">op_code=placeholder</text>
<polyline fill="none" stroke="black" points="1343,-721 1512,-721 "/>
<text text-anchor="middle" x="1427.5" y="-705.8" font-family="Times,serif" font-size="14.00" fill="#000000">target=arg8_1</text>
<polyline fill="none" stroke="black" points="1343,-698 1512,-698 "/>
<text text-anchor="middle" x="1427.5" y="-682.8" font-family="Times,serif" font-size="14.00" fill="#000000">num_users=1</text>
</g>
<!-- arg8_1&#45;&gt;op7 -->
<g id="edge9" class="edge">
<title>arg8_1&#45;&gt;op7</title>
<path fill="none" stroke="black" d="M1392.55,-674.77C1373.72,-650.4 1349.6,-619.18 1326.14,-588.82"/>
<polygon fill="black" stroke="black" points="1328.75,-586.48 1319.87,-580.71 1323.21,-590.76 1328.75,-586.48"/>
</g>
<!-- op1 -->
<g id="node12" class="node">
<title>op1</title>
<path fill="Salmon" stroke="black" d="M94.5,-1593.5C94.5,-1593.5 448.5,-1593.5 448.5,-1593.5 454.5,-1593.5 460.5,-1599.5 460.5,-1605.5 460.5,-1605.5 460.5,-1788.5 460.5,-1788.5 460.5,-1794.5 454.5,-1800.5 448.5,-1800.5 448.5,-1800.5 94.5,-1800.5 94.5,-1800.5 88.5,-1800.5 82.5,-1794.5 82.5,-1788.5 82.5,-1788.5 82.5,-1605.5 82.5,-1605.5 82.5,-1599.5 88.5,-1593.5 94.5,-1593.5"/>
<text text-anchor="middle" x="271.5" y="-1785.3" font-family="Times,serif" font-size="14.00" fill="#000000">name=%op1</text>
<polyline fill="none" stroke="black" points="82.5,-1777.5 460.5,-1777.5 "/>
<text text-anchor="middle" x="271.5" y="-1762.3" font-family="Times,serif" font-size="14.00" fill="#000000">op_code=call_function</text>
<polyline fill="none" stroke="black" points="82.5,-1754.5 460.5,-1754.5 "/>
<text text-anchor="middle" x="271.5" y="-1739.3" font-family="Times,serif" font-size="14.00" fill="#000000">target=torch._inductor.debug.compute: fused_relu</text>
<polyline fill="none" stroke="black" points="82.5,-1731.5 460.5,-1731.5 "/>
<text text-anchor="middle" x="271.5" y="-1716.3" font-family="Times,serif" font-size="14.00" fill="#000000">kwargs={device: cpu,}</text>
<polyline fill="none" stroke="black" points="82.5,-1708.5 460.5,-1708.5 "/>
<text text-anchor="middle" x="271.5" y="-1693.3" font-family="Times,serif" font-size="14.00" fill="#000000">num_users=1</text>
<polyline fill="none" stroke="black" points="82.5,-1685.5 460.5,-1685.5 "/>
<text text-anchor="middle" x="271.5" y="-1670.3" font-family="Times,serif" font-size="14.00" fill="#000000">dtype=None</text>
<polyline fill="none" stroke="black" points="82.5,-1662.5 460.5,-1662.5 "/>
<text text-anchor="middle" x="271.5" y="-1647.3" font-family="Times,serif" font-size="14.00" fill="#000000">shape=((s0, 32, 676), ())</text>
<polyline fill="none" stroke="black" points="82.5,-1639.5 460.5,-1639.5 "/>
<text text-anchor="middle" x="271.5" y="-1624.3" font-family="Times,serif" font-size="14.00" fill="#000000">requires_grad=None</text>
<polyline fill="none" stroke="black" points="82.5,-1616.5 460.5,-1616.5 "/>
<text text-anchor="middle" x="271.5" y="-1601.3" font-family="Times,serif" font-size="14.00" fill="#000000">stride=None</text>
</g>
<!-- op0&#45;&gt;op1 -->
<g id="edge10" class="edge">
<title>op0&#45;&gt;op1</title>
<path fill="none" stroke="black" d="M271.5,-1837.37C271.5,-1828.67 271.5,-1819.83 271.5,-1811.06"/>
<polygon fill="black" stroke="black" points="275,-1810.79 271.5,-1800.79 268,-1810.79 275,-1810.79"/>
</g>
<!-- op2&#45;&gt;op3 -->
<g id="edge11" class="edge">
<title>op2&#45;&gt;op3</title>
<path fill="none" stroke="black" d="M757.01,-1593.37C742.88,-1583.19 728.5,-1572.84 714.29,-1562.61"/>
<polygon fill="black" stroke="black" points="716.11,-1559.6 705.95,-1556.6 712.02,-1565.28 716.11,-1559.6"/>
</g>
<!-- op1&#45;&gt;op3 -->
<g id="edge12" class="edge">
<title>op1&#45;&gt;op3</title>
<path fill="none" stroke="black" d="M395.33,-1593.37C407.32,-1583.44 419.51,-1573.33 431.57,-1563.34"/>
<polygon fill="black" stroke="black" points="434.01,-1565.86 439.47,-1556.79 429.54,-1560.48 434.01,-1565.86"/>
</g>
<!-- op4 -->
<g id="node14" class="node">
<title>op4</title>
<path fill="#aeeeee" stroke="black" d="M293,-1105.5C293,-1105.5 834,-1105.5 834,-1105.5 840,-1105.5 846,-1111.5 846,-1117.5 846,-1117.5 846,-1300.5 846,-1300.5 846,-1306.5 840,-1312.5 834,-1312.5 834,-1312.5 293,-1312.5 293,-1312.5 287,-1312.5 281,-1306.5 281,-1300.5 281,-1300.5 281,-1117.5 281,-1117.5 281,-1111.5 287,-1105.5 293,-1105.5"/>
<text text-anchor="middle" x="563.5" y="-1297.3" font-family="Times,serif" font-size="14.00" fill="#000000">name=%op4</text>
<polyline fill="none" stroke="black" points="281,-1289.5 846,-1289.5 "/>
<text text-anchor="middle" x="563.5" y="-1274.3" font-family="Times,serif" font-size="14.00" fill="#000000">op_code=call_function</text>
<polyline fill="none" stroke="black" points="281,-1266.5 846,-1266.5 "/>
<text text-anchor="middle" x="563.5" y="-1251.3" font-family="Times,serif" font-size="14.00" fill="#000000">target=torch._inductor.debug.compute: fused_max_pool2d_with_indices_relu</text>
<polyline fill="none" stroke="black" points="281,-1243.5 846,-1243.5 "/>
<text text-anchor="middle" x="563.5" y="-1228.3" font-family="Times,serif" font-size="14.00" fill="#000000">kwargs={device: cpu,}</text>
<polyline fill="none" stroke="black" points="281,-1220.5 846,-1220.5 "/>
<text text-anchor="middle" x="563.5" y="-1205.3" font-family="Times,serif" font-size="14.00" fill="#000000">num_users=1</text>
<polyline fill="none" stroke="black" points="281,-1197.5 846,-1197.5 "/>
<text text-anchor="middle" x="563.5" y="-1182.3" font-family="Times,serif" font-size="14.00" fill="#000000">dtype=None</text>
<polyline fill="none" stroke="black" points="281,-1174.5 846,-1174.5 "/>
<text text-anchor="middle" x="563.5" y="-1159.3" font-family="Times,serif" font-size="14.00" fill="#000000">shape=((s0, 12, 12, 64), ())</text>
<polyline fill="none" stroke="black" points="281,-1151.5 846,-1151.5 "/>
<text text-anchor="middle" x="563.5" y="-1136.3" font-family="Times,serif" font-size="14.00" fill="#000000">requires_grad=None</text>
<polyline fill="none" stroke="black" points="281,-1128.5 846,-1128.5 "/>
<text text-anchor="middle" x="563.5" y="-1113.3" font-family="Times,serif" font-size="14.00" fill="#000000">stride=None</text>
</g>
<!-- op3&#45;&gt;op4 -->
<g id="edge13" class="edge">
<title>op3&#45;&gt;op4</title>
<path fill="none" stroke="black" d="M563.5,-1349.37C563.5,-1340.67 563.5,-1331.83 563.5,-1323.06"/>
<polygon fill="black" stroke="black" points="567,-1322.79 563.5,-1312.79 560,-1322.79 567,-1322.79"/>
</g>
<!-- op4&#45;&gt;op5 -->
<g id="edge14" class="edge">
<title>op4&#45;&gt;op5</title>
<path fill="none" stroke="black" d="M726.77,-1105.37C743.27,-1095 760.05,-1084.45 776.63,-1074.03"/>
<polygon fill="black" stroke="black" points="778.68,-1076.88 785.28,-1068.6 774.95,-1070.95 778.68,-1076.88"/>
</g>
<!-- op6 -->
<g id="node16" class="node">
<title>op6</title>
<path fill="Salmon" stroke="black" d="M771.5,-617.5C771.5,-617.5 1125.5,-617.5 1125.5,-617.5 1131.5,-617.5 1137.5,-623.5 1137.5,-629.5 1137.5,-629.5 1137.5,-812.5 1137.5,-812.5 1137.5,-818.5 1131.5,-824.5 1125.5,-824.5 1125.5,-824.5 771.5,-824.5 771.5,-824.5 765.5,-824.5 759.5,-818.5 759.5,-812.5 759.5,-812.5 759.5,-629.5 759.5,-629.5 759.5,-623.5 765.5,-617.5 771.5,-617.5"/>
<text text-anchor="middle" x="948.5" y="-809.3" font-family="Times,serif" font-size="14.00" fill="#000000">name=%op6</text>
<polyline fill="none" stroke="black" points="759.5,-801.5 1137.5,-801.5 "/>
<text text-anchor="middle" x="948.5" y="-786.3" font-family="Times,serif" font-size="14.00" fill="#000000">op_code=call_function</text>
<polyline fill="none" stroke="black" points="759.5,-778.5 1137.5,-778.5 "/>
<text text-anchor="middle" x="948.5" y="-763.3" font-family="Times,serif" font-size="14.00" fill="#000000">target=torch._inductor.debug.compute: fused_relu</text>
<polyline fill="none" stroke="black" points="759.5,-755.5 1137.5,-755.5 "/>
<text text-anchor="middle" x="948.5" y="-740.3" font-family="Times,serif" font-size="14.00" fill="#000000">kwargs={device: cpu,}</text>
<polyline fill="none" stroke="black" points="759.5,-732.5 1137.5,-732.5 "/>
<text text-anchor="middle" x="948.5" y="-717.3" font-family="Times,serif" font-size="14.00" fill="#000000">num_users=1</text>
<polyline fill="none" stroke="black" points="759.5,-709.5 1137.5,-709.5 "/>
<text text-anchor="middle" x="948.5" y="-694.3" font-family="Times,serif" font-size="14.00" fill="#000000">dtype=None</text>
<polyline fill="none" stroke="black" points="759.5,-686.5 1137.5,-686.5 "/>
<text text-anchor="middle" x="948.5" y="-671.3" font-family="Times,serif" font-size="14.00" fill="#000000">shape=((128*s0,), ())</text>
<polyline fill="none" stroke="black" points="759.5,-663.5 1137.5,-663.5 "/>
<text text-anchor="middle" x="948.5" y="-648.3" font-family="Times,serif" font-size="14.00" fill="#000000">requires_grad=None</text>
<polyline fill="none" stroke="black" points="759.5,-640.5 1137.5,-640.5 "/>
<text text-anchor="middle" x="948.5" y="-625.3" font-family="Times,serif" font-size="14.00" fill="#000000">stride=None</text>
</g>
<!-- op5&#45;&gt;op6 -->
<g id="edge15" class="edge">
<title>op5&#45;&gt;op6</title>
<path fill="none" stroke="black" d="M948.5,-861.37C948.5,-852.67 948.5,-843.83 948.5,-835.06"/>
<polygon fill="black" stroke="black" points="952,-834.79 948.5,-824.79 945,-834.79 952,-834.79"/>
</g>
<!-- op6&#45;&gt;op7 -->
<g id="edge16" class="edge">
<title>op6&#45;&gt;op7</title>
<path fill="none" stroke="black" d="M1072.33,-617.37C1084.32,-607.44 1096.51,-597.33 1108.57,-587.34"/>
<polygon fill="black" stroke="black" points="1111.01,-589.86 1116.47,-580.79 1106.54,-584.48 1111.01,-589.86"/>
</g>
<!-- op8_op9_op10 -->
<g id="node18" class="node">
<title>op8_op9_op10</title>
<path fill="#caff70" stroke="black" d="M1043,-129.5C1043,-129.5 1438,-129.5 1438,-129.5 1444,-129.5 1450,-135.5 1450,-141.5 1450,-141.5 1450,-324.5 1450,-324.5 1450,-330.5 1444,-336.5 1438,-336.5 1438,-336.5 1043,-336.5 1043,-336.5 1037,-336.5 1031,-330.5 1031,-324.5 1031,-324.5 1031,-141.5 1031,-141.5 1031,-135.5 1037,-129.5 1043,-129.5"/>
<text text-anchor="middle" x="1240.5" y="-321.3" font-family="Times,serif" font-size="14.00" fill="#000000">name=%op8_op9_op10</text>
<polyline fill="none" stroke="black" points="1031,-313.5 1450,-313.5 "/>
<text text-anchor="middle" x="1240.5" y="-298.3" font-family="Times,serif" font-size="14.00" fill="#000000">op_code=call_function</text>
<polyline fill="none" stroke="black" points="1031,-290.5 1450,-290.5 "/>
<text text-anchor="middle" x="1240.5" y="-275.3" font-family="Times,serif" font-size="14.00" fill="#000000">target=torch._inductor.debug.fused: fused__log_softmax</text>
<polyline fill="none" stroke="black" points="1031,-267.5 1450,-267.5 "/>
<text text-anchor="middle" x="1240.5" y="-252.3" font-family="Times,serif" font-size="14.00" fill="#000000">kwargs={device: cpu,}</text>
<polyline fill="none" stroke="black" points="1031,-244.5 1450,-244.5 "/>
<text text-anchor="middle" x="1240.5" y="-229.3" font-family="Times,serif" font-size="14.00" fill="#000000">num_users=1</text>
<polyline fill="none" stroke="black" points="1031,-221.5 1450,-221.5 "/>
<text text-anchor="middle" x="1240.5" y="-206.3" font-family="Times,serif" font-size="14.00" fill="#000000">dtype=None</text>
<polyline fill="none" stroke="black" points="1031,-198.5 1450,-198.5 "/>
<text text-anchor="middle" x="1240.5" y="-183.3" font-family="Times,serif" font-size="14.00" fill="#000000">shape=((s0,), (10,))</text>
<polyline fill="none" stroke="black" points="1031,-175.5 1450,-175.5 "/>
<text text-anchor="middle" x="1240.5" y="-160.3" font-family="Times,serif" font-size="14.00" fill="#000000">requires_grad=None</text>
<polyline fill="none" stroke="black" points="1031,-152.5 1450,-152.5 "/>
<text text-anchor="middle" x="1240.5" y="-137.3" font-family="Times,serif" font-size="14.00" fill="#000000">stride=None</text>
</g>
<!-- op7&#45;&gt;op8_op9_op10 -->
<g id="edge17" class="edge">
<title>op7&#45;&gt;op8_op9_op10</title>
<path fill="none" stroke="black" d="M1240.5,-373.37C1240.5,-364.67 1240.5,-355.83 1240.5,-347.06"/>
<polygon fill="black" stroke="black" points="1244,-346.79 1240.5,-336.79 1237,-346.79 1244,-346.79"/>
</g>
<!-- output -->
<g id="node19" class="node">
<title>output</title>
<path fill="PowderBlue" stroke="black" d="M1186,-0.5C1186,-0.5 1295,-0.5 1295,-0.5 1301,-0.5 1307,-6.5 1307,-12.5 1307,-12.5 1307,-80.5 1307,-80.5 1307,-86.5 1301,-92.5 1295,-92.5 1295,-92.5 1186,-92.5 1186,-92.5 1180,-92.5 1174,-86.5 1174,-80.5 1174,-80.5 1174,-12.5 1174,-12.5 1174,-6.5 1180,-0.5 1186,-0.5"/>
<text text-anchor="middle" x="1240.5" y="-77.3" font-family="Times,serif" font-size="14.00" fill="#000000">name=%output</text>
<polyline fill="none" stroke="black" points="1174,-69.5 1307,-69.5 "/>
<text text-anchor="middle" x="1240.5" y="-54.3" font-family="Times,serif" font-size="14.00" fill="#000000">op_code=output</text>
<polyline fill="none" stroke="black" points="1174,-46.5 1307,-46.5 "/>
<text text-anchor="middle" x="1240.5" y="-31.3" font-family="Times,serif" font-size="14.00" fill="#000000">target=output</text>
<polyline fill="none" stroke="black" points="1174,-23.5 1307,-23.5 "/>
<text text-anchor="middle" x="1240.5" y="-8.3" font-family="Times,serif" font-size="14.00" fill="#000000">num_users=0</text>
</g>
<!-- op8_op9_op10&#45;&gt;output -->
<g id="edge18" class="edge">
<title>op8_op9_op10&#45;&gt;output</title>
<path fill="none" stroke="black" d="M1240.5,-129.5C1240.5,-120.3 1240.5,-111.24 1240.5,-102.69"/>
<polygon fill="black" stroke="black" points="1244,-102.53 1240.5,-92.53 1237,-102.53 1244,-102.53"/>
</g>
</g>
</svg>
